<svg width="28" height="22" viewBox="0 0 28 22" fill="none" xmlns="http://www.w3.org/2000/svg">
<path d="M19.2712 13.0898C20.0736 11.9277 20.475 10.6413 20.475 9.23088C20.475 8.83515 20.4344 8.40887 20.353 7.95209L16.0876 15.5938C17.4076 15.0866 18.4689 14.2514 19.2712 13.0898Z" fill="black"/>
<path d="M19.8961 2.56307C19.9063 2.54292 19.911 2.49722 19.911 2.42615C19.911 2.25355 19.8298 2.11679 19.6671 2.01479C19.6368 1.99453 19.5378 1.93615 19.37 1.83953C19.2026 1.74329 19.0424 1.64935 18.8904 1.55791C18.7381 1.46657 18.5708 1.37278 18.3876 1.27638C18.2048 1.17993 18.0474 1.10128 17.9156 1.04034C17.7833 0.979504 17.6921 0.949005 17.6413 0.949005C17.4585 0.949005 17.3162 1.03032 17.2147 1.19262L16.3923 2.66933C15.4683 2.4969 14.554 2.41053 13.6501 2.41053C10.9181 2.41053 8.3994 3.10079 6.09381 4.48094C3.78838 5.86131 1.85881 7.74373 0.304733 10.1286C0.101542 10.4435 0 10.7936 0 11.1793C0 11.5648 0.101542 11.9151 0.304733 12.2295C1.19839 13.6197 2.25724 14.8633 3.48109 15.9591C4.70493 17.0554 6.0429 17.9329 7.49523 18.5929C7.04835 19.3539 6.82493 19.7955 6.82493 19.9174C6.82493 20.1 6.90625 20.242 7.06878 20.3434C8.30773 21.0541 8.98811 21.409 9.11008 21.409C9.29268 21.409 9.43499 21.3275 9.53653 21.1651L10.283 19.8105C11.3596 17.8927 12.9642 15.0154 15.0972 11.1793C17.23 7.3431 18.8296 4.47103 19.8961 2.56307ZM8.45505 16.8879C5.81453 15.7005 3.64602 13.7978 1.95011 11.1794C3.49384 8.7843 5.42858 6.99295 7.75434 5.80581C7.13484 6.86109 6.82499 8.00286 6.82499 9.23084C6.82499 10.3167 7.07369 11.3465 7.57148 12.3209C8.06916 13.2953 8.75978 14.1018 9.64341 14.7412L8.45505 16.8879ZM14.1681 5.85102C14.0261 5.99322 13.853 6.06424 13.6499 6.06424C12.7765 6.06424 12.0299 6.37392 11.4104 6.99284C10.7907 7.61214 10.4811 8.35796 10.4811 9.23068C10.4811 9.43388 10.4098 9.60626 10.2677 9.74841C10.1253 9.89061 9.95278 9.96163 9.74975 9.96163C9.54651 9.96163 9.37384 9.8905 9.23164 9.74841C9.08933 9.60626 9.01825 9.43367 9.01825 9.23068C9.01825 7.96223 9.47287 6.87368 10.3817 5.96534C11.2907 5.05711 12.3799 4.60288 13.6495 4.60288C13.8526 4.60288 14.0253 4.67412 14.1678 4.81611C14.3098 4.95815 14.381 5.13074 14.381 5.33367C14.381 5.53671 14.3099 5.70925 14.1681 5.85102Z" fill="black"/>
<path d="M26.9952 10.1287C26.4161 9.16466 25.6824 8.23084 24.7938 7.32762C23.9056 6.42445 22.9785 5.64829 22.0136 4.99866L21.0538 6.70363C22.7498 7.87067 24.182 9.36264 25.3497 11.1792C24.1212 13.087 22.5898 14.6449 20.7571 15.8524C18.9238 17.0607 16.9306 17.7555 14.7774 17.938L13.65 19.9475C15.9048 19.9475 18.0351 19.4656 20.0408 18.5014C22.0465 17.5376 23.8115 16.1827 25.3348 14.4372C26.0457 13.615 26.5992 12.8793 26.9954 12.2297C27.1985 11.8845 27.3 11.5341 27.3 11.1793C27.2998 10.8241 27.1983 10.474 26.9952 10.1287Z" fill="black"/>
</svg>
