<svg width="14" height="12" viewBox="0 0 14 12" fill="none" xmlns="http://www.w3.org/2000/svg">
<path d="M9.63324 7.0214C10.0343 6.44014 10.235 5.79675 10.235 5.0913C10.235 4.89337 10.2147 4.68016 10.174 4.45169L8.04182 8.27378C8.70166 8.02009 9.23219 7.60239 9.63324 7.0214Z" fill="black"/>
<path d="M9.9456 1.7563C9.9507 1.74622 9.95307 1.72337 9.95307 1.68782C9.95307 1.60149 9.91248 1.53309 9.83115 1.48207C9.816 1.47194 9.76652 1.44274 9.68264 1.39442C9.59894 1.34628 9.51886 1.29929 9.44287 1.25355C9.36675 1.20787 9.28313 1.16096 9.19156 1.11275C9.10018 1.0645 9.02152 1.02517 8.95561 0.994688C8.88949 0.964259 8.84388 0.949005 8.81848 0.949005C8.7271 0.949005 8.65599 0.989674 8.60526 1.07085L8.19415 1.80945C7.73228 1.72321 7.27524 1.68 6.8234 1.68C5.45772 1.68 4.19867 2.02525 3.04616 2.71555C1.89373 3.40596 0.92918 4.34748 0.152329 5.54031C0.0507587 5.69779 0 5.87292 0 6.06581C0 6.25864 0.0507587 6.43385 0.152329 6.59111C0.599048 7.28643 1.12835 7.90841 1.74012 8.45652C2.35189 9.00484 3.02071 9.44372 3.7467 9.77381C3.52331 10.1544 3.41163 10.3753 3.41163 10.4363C3.41163 10.5276 3.45228 10.5987 3.53353 10.6494C4.15285 11.0048 4.49296 11.1823 4.55393 11.1823C4.6452 11.1823 4.71634 11.1416 4.7671 11.0603L5.14026 10.3828C5.67844 9.42363 6.48052 7.98452 7.54674 6.06583C8.61292 4.14709 9.41252 2.71059 9.9456 1.7563ZM4.22649 8.92105C2.90655 8.32718 1.82256 7.3755 0.974817 6.06589C1.74649 4.86793 2.71363 3.97196 3.87622 3.3782C3.56655 3.90601 3.41166 4.47708 3.41166 5.09127C3.41166 5.63437 3.53598 6.14946 3.78481 6.63682C4.03359 7.12415 4.37882 7.52753 4.82053 7.84734L4.22649 8.92105ZM7.08234 3.40081C7.01134 3.47194 6.92481 3.50746 6.82329 3.50746C6.38671 3.50746 6.01347 3.66235 5.7038 3.97191C5.39405 4.28166 5.23927 4.65469 5.23927 5.09119C5.23927 5.19283 5.20363 5.27904 5.1326 5.35014C5.06144 5.42127 4.97518 5.45679 4.87369 5.45679C4.77209 5.45679 4.68577 5.42121 4.61469 5.35014C4.54355 5.27904 4.50803 5.19272 4.50803 5.09119C4.50803 4.45676 4.73528 3.91231 5.1896 3.45799C5.64395 3.00373 6.18842 2.77654 6.82308 2.77654C6.9246 2.77654 7.01094 2.81217 7.08215 2.88319C7.15316 2.95423 7.18874 3.04055 7.18874 3.14205C7.18877 3.2436 7.15318 3.3299 7.08234 3.40081Z" fill="black"/>
<path d="M13.4943 5.54033C13.2048 5.05817 12.8381 4.59111 12.3939 4.13935C11.9499 3.68762 11.4864 3.29941 11.0041 2.97449L10.5243 3.82725C11.3721 4.41096 12.088 5.15719 12.6718 6.06574C12.0577 7.01998 11.2922 7.79916 10.376 8.40314C9.4596 9.00747 8.46326 9.35501 7.38692 9.44626L6.82335 10.4513C7.95047 10.4513 9.01533 10.2103 10.0179 9.72807C11.0206 9.24601 11.9029 8.56833 12.6643 7.69529C13.0197 7.28404 13.2963 6.91608 13.4944 6.59121C13.5959 6.41851 13.6467 6.2433 13.6467 6.06579C13.6466 5.88816 13.5959 5.71303 13.4943 5.54033Z" fill="black"/>
</svg>
